<?xml version="1.0" encoding="UTF-8" standalone="no"?>
<!DOCTYPE svg PUBLIC "-//W3C//DTD SVG 1.1//EN"
 "http://www.w3.org/Graphics/SVG/1.1/DTD/svg11.dtd">
<!-- Generated by graphviz version 2.40.1 (20161225.0304)
 -->
<!-- Title: %3 Pages: 1 -->
<svg width="210pt" height="111pt"
 viewBox="0.00 0.00 210.05 111.21" xmlns="http://www.w3.org/2000/svg" xmlns:xlink="http://www.w3.org/1999/xlink">
<g id="graph0" class="graph" transform="scale(1 1) rotate(0) translate(4 107.2087)">
<title>%3</title>
<polygon fill="#ffffff" stroke="transparent" points="-4,4 -4,-107.2087 206.0476,-107.2087 206.0476,4 -4,4"/>
<!-- Bird Y -->
<g id="node1" class="node">
<title>Bird Y</title>
<polygon fill="#d3d3d3" stroke="#000000" points="40.6328,-103.2087 -.2124,-103.2087 -.2124,-86.2087 40.6328,-86.2087 40.6328,-103.2087"/>
<text text-anchor="middle" x="20.2102" y="-92.0087" font-family="Times,serif" font-size="9.00" fill="#000000">Bird Y</text>
</g>
<!-- Jump -->
<g id="node4" class="node">
<title>Jump</title>
<ellipse fill="#add8e6" stroke="#000000" cx="86.2102" cy="-25.1044" rx="25.2092" ry="25.2092"/>
<text text-anchor="middle" x="86.2102" y="-22.4044" font-family="Times,serif" font-size="9.00" fill="#000000">Jump</text>
</g>
<!-- Bird Y&#45;&gt;Jump -->
<g id="edge1" class="edge">
<title>Bird Y&#45;&gt;Jump</title>
<path fill="none" stroke="#00ff00" stroke-width=".2707" d="M28.3031,-86.1739C36.6267,-77.3957 50.0046,-63.2872 61.806,-50.8413"/>
<polygon fill="#00ff00" stroke="#00ff00" stroke-width=".2707" points="64.5501,-53.0341 68.891,-43.3693 59.4706,-48.2176 64.5501,-53.0341"/>
</g>
<!-- Top Pipe Y -->
<g id="node2" class="node">
<title>Top Pipe Y</title>
<polygon fill="#d3d3d3" stroke="#000000" points="114.2516,-103.2087 58.1688,-103.2087 58.1688,-86.2087 114.2516,-86.2087 114.2516,-103.2087"/>
<text text-anchor="middle" x="86.2102" y="-92.0087" font-family="Times,serif" font-size="9.00" fill="#000000">Top Pipe Y</text>
</g>
<!-- Top Pipe Y&#45;&gt;Jump -->
<g id="edge2" class="edge">
<title>Top Pipe Y&#45;&gt;Jump</title>
<path fill="none" stroke="#00ff00" stroke-width=".1391" d="M86.2102,-86.1739C86.2102,-79.6691 86.2102,-70.2374 86.2102,-60.7241"/>
<polygon fill="#00ff00" stroke="#00ff00" stroke-width=".1391" points="89.7103,-60.5039 86.2102,-50.5039 82.7103,-60.504 89.7103,-60.5039"/>
</g>
<!-- Bottom Pipe Y -->
<g id="node3" class="node">
<title>Bottom Pipe Y</title>
<polygon fill="#d3d3d3" stroke="#000000" points="201.8858,-103.2087 132.5346,-103.2087 132.5346,-86.2087 201.8858,-86.2087 201.8858,-103.2087"/>
<text text-anchor="middle" x="167.2102" y="-92.0087" font-family="Times,serif" font-size="9.00" fill="#000000">Bottom Pipe Y</text>
</g>
<!-- Bottom Pipe Y&#45;&gt;Jump -->
<g id="edge3" class="edge">
<title>Bottom Pipe Y&#45;&gt;Jump</title>
<path fill="none" stroke="#ff0000" stroke-width=".1535" d="M157.278,-86.1739C146.3419,-76.7763 128.2965,-61.2696 113.1266,-48.234"/>
<polygon fill="#ff0000" stroke="#ff0000" stroke-width=".1535" points="115.3744,-45.5508 105.5088,-41.6879 110.8122,-50.8599 115.3744,-45.5508"/>
</g>
</g>
</svg>
